<svg width="250" height="250" viewBox="0 0 250 250" fill="none" xmlns="http://www.w3.org/2000/svg">
<g clip-path="url(#clip0_47_83)">
<path d="M125 20.8334C134.333 20.8334 143.375 22.0625 151.979 24.3646L129.833 46.5C128.153 48.1868 126.672 50.0601 125.417 52.0834H125C110.579 52.0834 96.4809 56.3599 84.4898 64.372C72.4987 72.3842 63.1528 83.7723 57.6339 97.096C52.1151 110.42 50.6711 125.081 53.4846 139.225C56.2981 153.37 63.2427 166.362 73.4403 176.56C83.6379 186.757 96.6304 193.702 110.775 196.516C124.919 199.329 139.58 197.885 152.904 192.366C166.228 186.847 177.616 177.501 185.628 165.51C193.64 153.519 197.917 139.422 197.917 125V124.583C199.917 123.333 201.792 121.865 203.49 120.156L225.636 98.0209C227.938 106.625 229.167 115.667 229.167 125C229.167 182.531 182.531 229.167 125 229.167C67.4689 229.167 20.8335 182.531 20.8335 125C20.8335 67.4688 67.4689 20.8334 125 20.8334ZM120.688 73.0938C120.688 81.9584 120.25 90.948 120.729 99.8021L115.104 105.427C113.169 107.362 111.634 109.659 110.587 112.187C109.54 114.715 109.001 117.425 109.001 120.161C109.001 122.898 109.54 125.608 110.587 128.136C111.634 130.664 113.169 132.961 115.104 134.896C117.039 136.831 119.336 138.366 121.865 139.413C124.393 140.46 127.102 140.999 129.839 140.999C132.575 140.999 135.285 140.46 137.813 139.413C140.341 138.366 142.638 136.831 144.573 134.896L150.198 129.271C159.052 129.75 168.031 129.313 176.906 129.313C176.084 139.212 172.447 148.67 166.425 156.57C160.404 164.47 152.249 170.484 142.922 173.902C133.595 177.319 123.485 177.999 113.784 175.859C104.084 173.72 95.1977 168.851 88.1736 161.827C81.1495 154.803 76.2806 145.916 74.1411 136.216C72.0016 126.516 72.6808 116.406 76.0985 107.079C79.5162 97.7515 85.5298 89.5963 93.4303 83.5748C101.331 77.5533 110.788 73.9167 120.688 73.0938ZM192.75 22.1563C194.651 22.9446 196.277 24.2786 197.421 25.9897C198.564 27.7009 199.176 29.7126 199.177 31.7709V50.8334H218.229C220.289 50.8338 222.303 51.445 224.015 52.5896C225.728 53.7342 227.063 55.3609 227.851 57.2641C228.639 59.1672 228.845 61.2613 228.444 63.2816C228.042 65.302 227.05 67.1578 225.594 68.6146L188.75 105.417C186.797 107.37 184.148 108.468 181.386 108.469H156.25L137.198 127.521C135.243 129.474 132.593 130.571 129.83 130.57C127.067 130.569 124.417 129.47 122.464 127.516C120.51 125.561 119.414 122.911 119.415 120.147C119.416 117.384 120.514 114.734 122.469 112.781L141.521 93.75V68.6042C141.52 67.2346 141.789 65.8783 142.313 64.6128C142.836 63.3473 143.604 62.1975 144.573 61.2292L181.396 24.4063C182.853 22.9487 184.709 21.9559 186.73 21.5535C188.751 21.1511 190.846 21.3573 192.75 22.1459V22.1563Z" fill="black"/>
</g>
<defs>
<clipPath id="clip0_47_83">
<rect width="250" height="250" fill="white"/>
</clipPath>
</defs>
</svg>
