<svg width="240" height="160" viewBox="0 0 240 160" fill="none" xmlns="http://www.w3.org/2000/svg">
<path d="M239.31 76.76C238.96 75.97 230.49 57.18 211.66 38.35C186.57 13.26 154.88 0 120 0C85.1199 0 53.4299 13.26 28.3399 38.35C9.5099 57.18 0.999904 76 0.689904 76.76C0.235036 77.7831 0 78.8903 0 80.01C0 81.1297 0.235036 82.2369 0.689904 83.26C1.0399 84.05 9.5099 102.83 28.3399 121.66C53.4299 146.74 85.1199 160 120 160C154.88 160 186.57 146.74 211.66 121.66C230.49 102.83 238.96 84.05 239.31 83.26C239.765 82.2369 240 81.1297 240 80.01C240 78.8903 239.765 77.7831 239.31 76.76ZM120 120C112.089 120 104.355 117.654 97.7771 113.259C91.1991 108.864 86.0722 102.616 83.0447 95.3073C80.0172 87.9983 79.2251 79.9556 80.7685 72.1964C82.3119 64.4371 86.1215 57.3098 91.7156 51.7157C97.3097 46.1216 104.437 42.312 112.196 40.7686C119.956 39.2252 127.998 40.0173 135.307 43.0448C142.616 46.0723 148.863 51.1992 153.259 57.7772C157.654 64.3552 160 72.0887 160 80C160 90.6087 155.786 100.783 148.284 108.284C140.783 115.786 130.609 120 120 120Z" fill="black"/>
</svg>
